PathFileType	4	(X/Y/Z)	./resultDataOpenSim/trcMotMarkerGrf/sub09/qtm-13-01.trc
DataRate	CameraRate	NumFrames	NumMarkers	Units	OrigDataRate	OrigDataStartFrame	OrigNumFrames
250.000000	250.000000	5	24	m	250.000000	202	536
Frame#	Time	L.Toe.Tip			R.Toe.Tip			L.Ankle.Lat			R.Ankle.Lat			L.Ankle.Med			R.Ankle.Med			L.Heel			R.Heel			L.Knee.Lat			R.Knee.Lat			L.Knee.Med			R.Knee.Med			L.Thigh.Upper			R.Thigh.Upper			L.ASIS			R.ASIS			V.Sacral			L.Acromium			R.Acromium			C7			L.Elbow			R.Elbow			L.Wrist.Lat			R.Wrist.Lat
		X1	Y1	Z1	X2	Y2	Z2	X3	Y3	Z3	X4	Y4	Z4	X5	Y5	Z5	X6	Y6	Z6	X7	Y7	Z7	X8	Y8	Z8	X9	Y9	Z9	X10	Y10	Z10	X11	Y11	Z11	X12	Y12	Z12	X13	Y13	Z13	X14	Y14	Z14	X15	Y15	Z15	X16	Y16	Z16	X17	Y17	Z17	X18	Y18	Z18	X19	Y19	Z19	X20	Y20	Z20	X21	Y21	Z21	X22	Y22	Z22	X23	Y23	Z23	X24	Y24	Z24

202	0.804	0.15747318	-0.0080010634	0.051760753	-0.63055477	0.060025967	0.072509392	0.015024199	0.024308299	-0.015772364	-0.69251829	0.19952472	0.12068612	0.02018802	0.039765899	0.083248621	-0.63331988	0.20474961	0.040597181	-0.059004917	-0.01519713	0.019050543	-0.73265675	0.23817517	0.058360665	0.026169716	0.44232554	-0.063488549	-0.30616353	0.44450739	0.21781984	0.00070910897	0.44409133	0.059274555	-0.29409734	0.41576642	0.099010995	-0.13372563	0.82078966	-0.12878984	-0.24518079	0.83361724	0.2302818	-0.080476217	0.90727172	-0.054225092	-0.12088739	0.91201774	0.18415359	-0.26817034	0.96279571	0.026476156	-0.15914983	1.3636295	-0.13501348	-0.18558287	1.382604	0.1965297	-0.23710751	1.4155501	0.026861016	-0.30855822	1.033631	-0.18389484	-0.3168391	1.052068	0.28794548	-0.20035234	0.79440008	-0.22266961	-0.19301582	0.81294929	0.33177886
203	0.808	0.15808094	-0.0082816283	0.051768745	-0.62639685	0.062404599	0.074019382	0.015759824	0.024302427	-0.015826208	-0.68338409	0.20498053	0.12119892	0.02094742	0.039854655	0.083225047	-0.6235211	0.20858941	0.041633	-0.05863754	-0.014830159	0.01893909	-0.72181552	0.24500028	0.059020249	0.03152578	0.44199045	-0.064018609	-0.29464027	0.44281192	0.2188165	0.008291481	0.44493905	0.059086812	-0.28115055	0.41386714	0.10025118	-0.12983116	0.82154694	-0.12984403	-0.23885587	0.83288989	0.23059092	-0.074724645	0.90798793	-0.054879085	-0.11495184	0.91213369	0.18380427	-0.26218458	0.96280625	0.026973919	-0.15164441	1.3635681	-0.13522505	-0.17937794	1.3827609	0.19634289	-0.23016714	1.415693	0.026338545	-0.30030683	1.0333401	-0.18455683	-0.31071465	1.0521552	0.28715462	-0.19286909	0.79387051	-0.2228513	-0.18738961	0.81306066	0.33207572
204	0.812	0.15838568	-0.0085266925	0.051889646	-0.62161989	0.065042231	0.075614948	0.016317294	0.024224188	-0.01606101	-0.67379066	0.21037679	0.1216808	0.021328995	0.039927774	0.083049712	-0.61304843	0.21231813	0.042575931	-0.058442795	-0.014612722	0.018587498	-0.7105726	0.25172963	0.059611013	0.036411187	0.44139231	-0.064684496	-0.28201303	0.44107563	0.21974898	0.0153654	0.44510035	0.058732145	-0.26818709	0.41209701	0.10129757	-0.12623277	0.82219754	-0.13062077	-0.23257232	0.83230108	0.2308105	-0.068889641	0.90896948	-0.055615253	-0.10914409	0.91228966	0.18344767	-0.25623823	0.9627874	0.027470312	-0.14408945	1.3636246	-0.13535728	-0.1729975	1.3830459	0.19611857	-0.22331451	1.4158845	0.025938072	-0.29209405	1.0331761	-0.18509338	-0.30476976	1.0524716	0.28639729	-0.18528757	0.79344433	-0.22298119	-0.18181228	0.81329205	0.33231948
205	0.816	0.15842986	-0.0087454406	0.052011373	-0.61600569	0.068007036	0.077307999	0.016718636	0.024071912	-0.016445637	-0.6637034	0.21573576	0.12220496	0.021388441	0.039967187	0.082734291	-0.60213852	0.2160307	0.043423035	-0.058409132	-0.014563678	0.018138352	-0.69896918	0.25830217	0.06016031	0.04092455	0.4405952	-0.065466371	-0.26860426	0.43933836	0.22070607	0.021874778	0.44470754	0.058162219	-0.25516899	0.41050926	0.10219212	-0.12263517	0.822748	-0.13101862	-0.22624806	0.83183036	0.2309752	-0.062975506	0.91014649	-0.056396102	-0.10342733	0.91244215	0.18309651	-0.25030901	0.96272409	0.02796745	-0.13650673	1.3637833	-0.13542023	-0.16642901	1.3834351	0.19587658	-0.21647336	1.4161242	0.02560726	-0.28382732	1.0331345	-0.18554073	-0.29874151	1.0529222	0.28560068	-0.17761651	0.79313139	-0.22306059	-0.17627938	0.81363503	0.33252152
206	0.82	0.1583458	-0.0089461296	0.052088137	-0.60924601	0.071397395	0.079071173	0.017050118	0.023829227	-0.01686702	-0.65318558	0.22109197	0.12282814	0.021296672	0.039967853	0.082358362	-0.59103424	0.21987321	0.044157163	-0.058473163	-0.014648906	0.017785464	-0.68714714	0.26467128	0.060752257	0.045089706	0.43965784	-0.066301675	-0.25497643	0.43759764	0.22162316	0.027909844	0.44390215	0.057455911	-0.24206533	0.40913632	0.10299538	-0.11874646	0.82323736	-0.13109347	-0.21984716	0.83144007	0.23113557	-0.057001387	0.91145256	-0.057153766	-0.097779096	0.91257827	0.18276885	-0.24437637	0.96259901	0.028464457	-0.12890959	1.3640295	-0.13542641	-0.15970698	1.3839138	0.19564999	-0.20963418	1.4164068	0.025314308	-0.27544666	1.0332057	-0.18600598	-0.29251683	1.053466	0.28474934	-0.16987679	0.79294045	-0.22308199	-0.17078426	0.81408703	0.33269741
